<mxfile host="app.diagrams.net" modified="2024-07-10T19:18:32.765Z" agent="Mozilla/5.0 (Windows NT 10.0; Win64; x64; rv:127.0) Gecko/20100101 Firefox/127.0" etag="9-DtGzyyTw_83RTbMm8p" version="24.6.4" type="device">
  <diagram name="Page-1" id="2cc2dc42-3aac-f2a9-1cec-7a8b7cbee084">
    <mxGraphModel dx="2074" dy="1058" grid="1" gridSize="10" guides="1" tooltips="1" connect="1" arrows="1" fold="1" page="1" pageScale="1" pageWidth="1100" pageHeight="850" background="none" math="0" shadow="0">
      <root>
        <mxCell id="0" />
        <mxCell id="1" parent="0" />
        <mxCell id="7026571954dc6520-1" value="" style="strokeWidth=1;shadow=0;dashed=0;align=center;html=1;shape=mxgraph.mockup.containers.browserWindow;rSize=0;strokeColor=#666666;mainText=,;recursiveResize=0;rounded=0;labelBackgroundColor=none;fontFamily=Verdana;fontSize=12" parent="1" vertex="1">
          <mxGeometry x="30" y="20" width="1050" height="820" as="geometry" />
        </mxCell>
        <mxCell id="P-hDzV4MKQiVMOgV8dx6-1" value="" style="rounded=0;whiteSpace=wrap;html=1;" vertex="1" parent="7026571954dc6520-1">
          <mxGeometry x="70" y="290" width="890" height="160" as="geometry" />
        </mxCell>
        <mxCell id="7026571954dc6520-2" value="Page 1" style="strokeWidth=1;shadow=0;dashed=0;align=center;html=1;shape=mxgraph.mockup.containers.anchor;fontSize=17;fontColor=#666666;align=left;" parent="7026571954dc6520-1" vertex="1">
          <mxGeometry x="60" y="12" width="110" height="26" as="geometry" />
        </mxCell>
        <mxCell id="7026571954dc6520-3" value="https://www.default.com" style="strokeWidth=1;shadow=0;dashed=0;align=center;html=1;shape=mxgraph.mockup.containers.anchor;rSize=0;fontSize=17;fontColor=#666666;align=left;" parent="7026571954dc6520-1" vertex="1">
          <mxGeometry x="130" y="60" width="250" height="26" as="geometry" />
        </mxCell>
        <mxCell id="7026571954dc6520-16" value="Music discovery Lyon" style="text;html=1;points=[];align=left;verticalAlign=top;spacingTop=-4;fontSize=15;fontFamily=Verdana" parent="7026571954dc6520-1" vertex="1">
          <mxGeometry x="440" y="210" width="170" height="30" as="geometry" />
        </mxCell>
        <mxCell id="7026571954dc6520-17" value="Recommended albums:" style="text;spacingTop=-5;whiteSpace=wrap;html=1;align=left;fontSize=12;fontFamily=Helvetica;fillColor=none;strokeColor=none;rounded=0;shadow=1;labelBackgroundColor=none;" parent="7026571954dc6520-1" vertex="1">
          <mxGeometry x="440" y="260" width="150" height="25" as="geometry" />
        </mxCell>
        <mxCell id="Au9KBMOpigVklPiua_w_-5" value="" style="rounded=0;whiteSpace=wrap;html=1;" parent="7026571954dc6520-1" vertex="1">
          <mxGeometry x="-5" y="110" width="1050" height="60" as="geometry" />
        </mxCell>
        <mxCell id="7026571954dc6520-18" value="&lt;div&gt;Home&lt;/div&gt;" style="strokeWidth=1;shadow=0;dashed=0;align=center;html=1;shape=mxgraph.mockup.buttons.button;strokeColor=#666666;mainText=;buttonStyle=round;fontSize=17;fontStyle=0;fillColor=none;whiteSpace=wrap;rounded=0;labelBackgroundColor=none;" parent="7026571954dc6520-1" vertex="1">
          <mxGeometry y="110" width="220" height="60" as="geometry" />
        </mxCell>
        <mxCell id="Au9KBMOpigVklPiua_w_-6" value="Albums" style="strokeWidth=1;shadow=0;dashed=0;align=center;html=1;shape=mxgraph.mockup.buttons.button;strokeColor=#666666;mainText=;buttonStyle=round;fontSize=17;fontStyle=0;fillColor=none;whiteSpace=wrap;rounded=0;labelBackgroundColor=none;" parent="7026571954dc6520-1" vertex="1">
          <mxGeometry x="220" y="110" width="220" height="60" as="geometry" />
        </mxCell>
        <mxCell id="Au9KBMOpigVklPiua_w_-7" value="Songs" style="strokeWidth=1;shadow=0;dashed=0;align=center;html=1;shape=mxgraph.mockup.buttons.button;strokeColor=#666666;mainText=;buttonStyle=round;fontSize=17;fontStyle=0;fillColor=none;whiteSpace=wrap;rounded=0;labelBackgroundColor=none;" parent="7026571954dc6520-1" vertex="1">
          <mxGeometry x="440" y="110" width="220" height="60" as="geometry" />
        </mxCell>
        <mxCell id="Au9KBMOpigVklPiua_w_-8" value="Artists" style="strokeWidth=1;shadow=0;dashed=0;align=center;html=1;shape=mxgraph.mockup.buttons.button;strokeColor=#666666;mainText=;buttonStyle=round;fontSize=17;fontStyle=0;fillColor=none;whiteSpace=wrap;rounded=0;labelBackgroundColor=none;" parent="7026571954dc6520-1" vertex="1">
          <mxGeometry x="660" y="110" width="220" height="60" as="geometry" />
        </mxCell>
        <mxCell id="Au9KBMOpigVklPiua_w_-9" value="" style="verticalLabelPosition=bottom;shadow=0;dashed=0;align=center;html=1;verticalAlign=top;strokeWidth=1;shape=mxgraph.mockup.graphics.simpleIcon;strokeColor=#999999;" parent="7026571954dc6520-1" vertex="1">
          <mxGeometry x="120" y="310" width="90" height="90" as="geometry" />
        </mxCell>
        <mxCell id="P-hDzV4MKQiVMOgV8dx6-3" value="&lt;font style=&quot;font-size: 11px;&quot;&gt;Clickable album name&lt;br&gt;&lt;/font&gt;" style="text;html=1;align=center;verticalAlign=middle;whiteSpace=wrap;rounded=0;" vertex="1" parent="7026571954dc6520-1">
          <mxGeometry x="135" y="400" width="60" height="30" as="geometry" />
        </mxCell>
        <mxCell id="P-hDzV4MKQiVMOgV8dx6-4" value="" style="verticalLabelPosition=bottom;shadow=0;dashed=0;align=center;html=1;verticalAlign=top;strokeWidth=1;shape=mxgraph.mockup.graphics.simpleIcon;strokeColor=#999999;" vertex="1" parent="7026571954dc6520-1">
          <mxGeometry x="220" y="310" width="90" height="90" as="geometry" />
        </mxCell>
        <mxCell id="P-hDzV4MKQiVMOgV8dx6-5" value="&lt;font style=&quot;font-size: 11px;&quot;&gt;Clickable album name&lt;br&gt;&lt;/font&gt;" style="text;html=1;align=center;verticalAlign=middle;whiteSpace=wrap;rounded=0;" vertex="1" parent="7026571954dc6520-1">
          <mxGeometry x="235" y="400" width="60" height="30" as="geometry" />
        </mxCell>
        <mxCell id="P-hDzV4MKQiVMOgV8dx6-6" value="" style="verticalLabelPosition=bottom;shadow=0;dashed=0;align=center;html=1;verticalAlign=top;strokeWidth=1;shape=mxgraph.mockup.graphics.simpleIcon;strokeColor=#999999;" vertex="1" parent="7026571954dc6520-1">
          <mxGeometry x="320" y="310" width="90" height="90" as="geometry" />
        </mxCell>
        <mxCell id="P-hDzV4MKQiVMOgV8dx6-7" value="&lt;font style=&quot;font-size: 11px;&quot;&gt;Clickable album name&lt;br&gt;&lt;/font&gt;" style="text;html=1;align=center;verticalAlign=middle;whiteSpace=wrap;rounded=0;" vertex="1" parent="7026571954dc6520-1">
          <mxGeometry x="335" y="400" width="60" height="30" as="geometry" />
        </mxCell>
        <mxCell id="P-hDzV4MKQiVMOgV8dx6-8" value="" style="verticalLabelPosition=bottom;shadow=0;dashed=0;align=center;html=1;verticalAlign=top;strokeWidth=1;shape=mxgraph.mockup.graphics.simpleIcon;strokeColor=#999999;" vertex="1" parent="7026571954dc6520-1">
          <mxGeometry x="420" y="310" width="90" height="90" as="geometry" />
        </mxCell>
        <mxCell id="P-hDzV4MKQiVMOgV8dx6-9" value="&lt;font style=&quot;font-size: 11px;&quot;&gt;Clickable album name&lt;br&gt;&lt;/font&gt;" style="text;html=1;align=center;verticalAlign=middle;whiteSpace=wrap;rounded=0;" vertex="1" parent="7026571954dc6520-1">
          <mxGeometry x="435" y="400" width="60" height="30" as="geometry" />
        </mxCell>
        <mxCell id="P-hDzV4MKQiVMOgV8dx6-10" value="" style="verticalLabelPosition=bottom;shadow=0;dashed=0;align=center;html=1;verticalAlign=top;strokeWidth=1;shape=mxgraph.mockup.graphics.simpleIcon;strokeColor=#999999;" vertex="1" parent="7026571954dc6520-1">
          <mxGeometry x="520" y="310" width="90" height="90" as="geometry" />
        </mxCell>
        <mxCell id="P-hDzV4MKQiVMOgV8dx6-11" value="&lt;font style=&quot;font-size: 11px;&quot;&gt;Clickable album name&lt;br&gt;&lt;/font&gt;" style="text;html=1;align=center;verticalAlign=middle;whiteSpace=wrap;rounded=0;" vertex="1" parent="7026571954dc6520-1">
          <mxGeometry x="535" y="400" width="60" height="30" as="geometry" />
        </mxCell>
        <mxCell id="P-hDzV4MKQiVMOgV8dx6-12" value="" style="verticalLabelPosition=bottom;shadow=0;dashed=0;align=center;html=1;verticalAlign=top;strokeWidth=1;shape=mxgraph.mockup.graphics.simpleIcon;strokeColor=#999999;" vertex="1" parent="7026571954dc6520-1">
          <mxGeometry x="620" y="310" width="90" height="90" as="geometry" />
        </mxCell>
        <mxCell id="P-hDzV4MKQiVMOgV8dx6-13" value="&lt;font style=&quot;font-size: 11px;&quot;&gt;Clickable album name&lt;br&gt;&lt;/font&gt;" style="text;html=1;align=center;verticalAlign=middle;whiteSpace=wrap;rounded=0;" vertex="1" parent="7026571954dc6520-1">
          <mxGeometry x="635" y="400" width="60" height="30" as="geometry" />
        </mxCell>
        <mxCell id="P-hDzV4MKQiVMOgV8dx6-14" value="" style="verticalLabelPosition=bottom;shadow=0;dashed=0;align=center;html=1;verticalAlign=top;strokeWidth=1;shape=mxgraph.mockup.graphics.simpleIcon;strokeColor=#999999;" vertex="1" parent="7026571954dc6520-1">
          <mxGeometry x="720" y="310" width="90" height="90" as="geometry" />
        </mxCell>
        <mxCell id="P-hDzV4MKQiVMOgV8dx6-15" value="&lt;font style=&quot;font-size: 11px;&quot;&gt;Clickable album name&lt;br&gt;&lt;/font&gt;" style="text;html=1;align=center;verticalAlign=middle;whiteSpace=wrap;rounded=0;" vertex="1" parent="7026571954dc6520-1">
          <mxGeometry x="735" y="400" width="60" height="30" as="geometry" />
        </mxCell>
        <mxCell id="P-hDzV4MKQiVMOgV8dx6-16" value="" style="verticalLabelPosition=bottom;shadow=0;dashed=0;align=center;html=1;verticalAlign=top;strokeWidth=1;shape=mxgraph.mockup.graphics.simpleIcon;strokeColor=#999999;" vertex="1" parent="7026571954dc6520-1">
          <mxGeometry x="820" y="310" width="90" height="90" as="geometry" />
        </mxCell>
        <mxCell id="P-hDzV4MKQiVMOgV8dx6-17" value="&lt;font style=&quot;font-size: 11px;&quot;&gt;Clickable album name&lt;br&gt;&lt;/font&gt;" style="text;html=1;align=center;verticalAlign=middle;whiteSpace=wrap;rounded=0;" vertex="1" parent="7026571954dc6520-1">
          <mxGeometry x="835" y="400" width="60" height="30" as="geometry" />
        </mxCell>
        <mxCell id="P-hDzV4MKQiVMOgV8dx6-18" value="" style="rounded=0;whiteSpace=wrap;html=1;" vertex="1" parent="7026571954dc6520-1">
          <mxGeometry x="70" y="510" width="890" height="160" as="geometry" />
        </mxCell>
        <mxCell id="P-hDzV4MKQiVMOgV8dx6-19" value="Recommended artists" style="text;spacingTop=-5;whiteSpace=wrap;html=1;align=left;fontSize=12;fontFamily=Helvetica;fillColor=none;strokeColor=none;rounded=0;shadow=1;labelBackgroundColor=none;" vertex="1" parent="7026571954dc6520-1">
          <mxGeometry x="440" y="480" width="150" height="25" as="geometry" />
        </mxCell>
        <mxCell id="P-hDzV4MKQiVMOgV8dx6-20" value="" style="verticalLabelPosition=bottom;shadow=0;dashed=0;align=center;html=1;verticalAlign=top;strokeWidth=1;shape=mxgraph.mockup.graphics.simpleIcon;strokeColor=#999999;" vertex="1" parent="7026571954dc6520-1">
          <mxGeometry x="120" y="530" width="90" height="90" as="geometry" />
        </mxCell>
        <mxCell id="P-hDzV4MKQiVMOgV8dx6-21" value="&lt;font style=&quot;font-size: 11px;&quot;&gt;Clickable artist name&lt;br&gt;&lt;/font&gt;" style="text;html=1;align=center;verticalAlign=middle;whiteSpace=wrap;rounded=0;" vertex="1" parent="7026571954dc6520-1">
          <mxGeometry x="135" y="620" width="60" height="30" as="geometry" />
        </mxCell>
        <mxCell id="P-hDzV4MKQiVMOgV8dx6-22" value="" style="verticalLabelPosition=bottom;shadow=0;dashed=0;align=center;html=1;verticalAlign=top;strokeWidth=1;shape=mxgraph.mockup.graphics.simpleIcon;strokeColor=#999999;" vertex="1" parent="7026571954dc6520-1">
          <mxGeometry x="220" y="530" width="90" height="90" as="geometry" />
        </mxCell>
        <mxCell id="P-hDzV4MKQiVMOgV8dx6-23" value="&lt;font style=&quot;font-size: 11px;&quot;&gt;Clickable artist name&lt;br&gt;&lt;/font&gt;" style="text;html=1;align=center;verticalAlign=middle;whiteSpace=wrap;rounded=0;" vertex="1" parent="7026571954dc6520-1">
          <mxGeometry x="235" y="620" width="60" height="30" as="geometry" />
        </mxCell>
        <mxCell id="P-hDzV4MKQiVMOgV8dx6-24" value="" style="verticalLabelPosition=bottom;shadow=0;dashed=0;align=center;html=1;verticalAlign=top;strokeWidth=1;shape=mxgraph.mockup.graphics.simpleIcon;strokeColor=#999999;" vertex="1" parent="7026571954dc6520-1">
          <mxGeometry x="320" y="530" width="90" height="90" as="geometry" />
        </mxCell>
        <mxCell id="P-hDzV4MKQiVMOgV8dx6-25" value="&lt;font style=&quot;font-size: 11px;&quot;&gt;Clickable artist name&lt;br&gt;&lt;/font&gt;" style="text;html=1;align=center;verticalAlign=middle;whiteSpace=wrap;rounded=0;" vertex="1" parent="7026571954dc6520-1">
          <mxGeometry x="335" y="620" width="60" height="30" as="geometry" />
        </mxCell>
        <mxCell id="P-hDzV4MKQiVMOgV8dx6-26" value="" style="verticalLabelPosition=bottom;shadow=0;dashed=0;align=center;html=1;verticalAlign=top;strokeWidth=1;shape=mxgraph.mockup.graphics.simpleIcon;strokeColor=#999999;" vertex="1" parent="7026571954dc6520-1">
          <mxGeometry x="420" y="530" width="90" height="90" as="geometry" />
        </mxCell>
        <mxCell id="P-hDzV4MKQiVMOgV8dx6-27" value="&lt;font style=&quot;font-size: 11px;&quot;&gt;Clickable artist name&lt;br&gt;&lt;/font&gt;" style="text;html=1;align=center;verticalAlign=middle;whiteSpace=wrap;rounded=0;" vertex="1" parent="7026571954dc6520-1">
          <mxGeometry x="435" y="620" width="60" height="30" as="geometry" />
        </mxCell>
        <mxCell id="P-hDzV4MKQiVMOgV8dx6-28" value="" style="verticalLabelPosition=bottom;shadow=0;dashed=0;align=center;html=1;verticalAlign=top;strokeWidth=1;shape=mxgraph.mockup.graphics.simpleIcon;strokeColor=#999999;" vertex="1" parent="7026571954dc6520-1">
          <mxGeometry x="520" y="530" width="90" height="90" as="geometry" />
        </mxCell>
        <mxCell id="P-hDzV4MKQiVMOgV8dx6-29" value="&lt;font style=&quot;font-size: 11px;&quot;&gt;Clickable artist name&lt;br&gt;&lt;/font&gt;" style="text;html=1;align=center;verticalAlign=middle;whiteSpace=wrap;rounded=0;" vertex="1" parent="7026571954dc6520-1">
          <mxGeometry x="535" y="620" width="60" height="30" as="geometry" />
        </mxCell>
        <mxCell id="P-hDzV4MKQiVMOgV8dx6-30" value="" style="verticalLabelPosition=bottom;shadow=0;dashed=0;align=center;html=1;verticalAlign=top;strokeWidth=1;shape=mxgraph.mockup.graphics.simpleIcon;strokeColor=#999999;" vertex="1" parent="7026571954dc6520-1">
          <mxGeometry x="620" y="530" width="90" height="90" as="geometry" />
        </mxCell>
        <mxCell id="P-hDzV4MKQiVMOgV8dx6-31" value="&lt;font style=&quot;font-size: 11px;&quot;&gt;Clickable artist name&lt;br&gt;&lt;/font&gt;" style="text;html=1;align=center;verticalAlign=middle;whiteSpace=wrap;rounded=0;" vertex="1" parent="7026571954dc6520-1">
          <mxGeometry x="635" y="620" width="60" height="30" as="geometry" />
        </mxCell>
        <mxCell id="P-hDzV4MKQiVMOgV8dx6-32" value="" style="verticalLabelPosition=bottom;shadow=0;dashed=0;align=center;html=1;verticalAlign=top;strokeWidth=1;shape=mxgraph.mockup.graphics.simpleIcon;strokeColor=#999999;" vertex="1" parent="7026571954dc6520-1">
          <mxGeometry x="720" y="530" width="90" height="90" as="geometry" />
        </mxCell>
        <mxCell id="P-hDzV4MKQiVMOgV8dx6-33" value="&lt;font style=&quot;font-size: 11px;&quot;&gt;Clickable artist name&lt;br&gt;&lt;/font&gt;" style="text;html=1;align=center;verticalAlign=middle;whiteSpace=wrap;rounded=0;" vertex="1" parent="7026571954dc6520-1">
          <mxGeometry x="735" y="620" width="60" height="30" as="geometry" />
        </mxCell>
        <mxCell id="P-hDzV4MKQiVMOgV8dx6-34" value="" style="verticalLabelPosition=bottom;shadow=0;dashed=0;align=center;html=1;verticalAlign=top;strokeWidth=1;shape=mxgraph.mockup.graphics.simpleIcon;strokeColor=#999999;" vertex="1" parent="7026571954dc6520-1">
          <mxGeometry x="820" y="530" width="90" height="90" as="geometry" />
        </mxCell>
        <mxCell id="P-hDzV4MKQiVMOgV8dx6-35" value="&lt;font style=&quot;font-size: 11px;&quot;&gt;Clickable album name&lt;br&gt;&lt;/font&gt;" style="text;html=1;align=center;verticalAlign=middle;whiteSpace=wrap;rounded=0;" vertex="1" parent="7026571954dc6520-1">
          <mxGeometry x="835" y="620" width="60" height="30" as="geometry" />
        </mxCell>
      </root>
    </mxGraphModel>
  </diagram>
</mxfile>
